<svg width="78" height="78" viewBox="0 0 78 78" fill="none" xmlns="http://www.w3.org/2000/svg">
<path fill-rule="evenodd" clip-rule="evenodd" d="M17.8399 4.43809C19.0451 -0.0207142 24.6251 -1.50284 27.8839 1.77026L56.8481 30.8612C56.2652 30.4612 55.6432 30.094 54.9822 29.7597C52.7019 28.6063 50.0637 28.0295 47.0674 28.0295C44.4027 28.0295 41.9832 28.5267 39.8089 29.521C38.7899 29.9808 37.8379 30.5367 36.9529 31.1886H24.3118V38.5011H31.1788C31.1745 38.6682 31.1645 38.832 31.1487 38.9925C30.9524 39.4856 30.7701 39.9942 30.6015 40.5182C30.5147 40.7925 30.4323 41.0705 30.3543 41.352C29.8374 42.1499 29.0728 42.7692 28.0603 43.2099C27.0263 43.6654 25.7275 43.8932 24.164 43.8932C22.3913 43.8932 20.9079 43.4746 19.7137 42.6375C18.5196 41.8004 17.6209 40.5939 17.0177 39.0182C16.4145 37.4424 16.1129 35.5466 16.1129 33.3307C16.1129 31.1394 16.4268 29.2682 17.0547 27.717C17.6948 26.1659 18.6181 24.9779 19.8245 24.1531C21.0433 23.3283 22.5144 22.9159 24.2379 22.9159C25.0381 22.9159 25.7706 23.0082 26.4353 23.1929C27.1124 23.3652 27.7033 23.6299 28.2081 23.9869C28.7251 24.3316 29.156 24.7563 29.5007 25.2611C29.8454 25.7535 30.0977 26.3259 30.2578 26.9784H40.6356C40.4387 25.0826 39.8847 23.3406 38.9737 21.7526C38.0627 20.1645 36.8624 18.7919 35.3728 17.6347C33.8956 16.4652 32.1905 15.5665 30.2578 14.9386C28.3373 14.2985 26.2568 13.9784 24.0163 13.9784C21.468 13.9784 19.0798 14.4093 16.8515 15.271C16.0805 15.565 15.3411 15.9083 14.6335 16.301L17.8399 4.43809ZM7.43789 42.9227L0.214279 69.648C-0.990892 74.1068 3.08268 78.1982 7.5467 77.0125L39.5711 68.5065C37.7155 67.7491 36.0514 66.646 34.5788 65.1972C32.9349 63.5797 31.6423 61.4718 30.701 58.8733C30.0131 56.9473 29.5838 54.7191 29.4131 52.1885C27.7631 52.6166 25.9888 52.8307 24.0902 52.8307C20.4093 52.8307 17.1778 52.049 14.3956 50.4855C11.6134 48.9221 9.44055 46.6938 7.8771 43.8009C7.72305 43.5135 7.57664 43.2208 7.43789 42.9227ZM62.8174 40.7568C62.6007 38.5255 61.8567 36.4782 60.5853 34.6148L75.5446 49.6395C78.8034 52.9126 77.297 58.4861 72.833 59.6718L61.3863 62.7121C62.6713 60.5827 63.3075 58.1165 63.2947 55.3136C63.308 52.8212 62.7976 50.6072 61.7635 48.6716C60.7294 46.736 59.2843 45.2114 57.4282 44.0977C55.5854 42.9841 53.4311 42.4273 50.9652 42.4273C49.414 42.4273 47.9424 42.6659 46.5504 43.1432C45.1584 43.6205 43.9387 44.3032 42.8913 45.1915C41.844 46.0797 41.0618 47.147 40.5447 48.3932H40.3061C40.3326 45.1053 40.8828 42.4538 41.9566 40.4386C43.0438 38.4235 44.7474 37.4159 47.0674 37.4159C48.2341 37.4159 49.2682 37.6877 50.1697 38.2313C51.0845 38.7616 51.6678 39.6034 51.9197 40.7568H62.8174ZM46.9083 61.5182C48.0087 61.5182 48.9832 61.2663 49.8316 60.7625C50.6934 60.2587 51.3629 59.5693 51.8402 58.6943C52.3307 57.8193 52.5693 56.825 52.5561 55.7114C52.5693 54.5845 52.3307 53.5902 51.8402 52.7284C51.3629 51.8534 50.6934 51.164 49.8316 50.6602C48.9832 50.1564 48.0087 49.9045 46.9083 49.9045C46.0996 49.9045 45.3506 50.0504 44.6612 50.342C43.9851 50.6205 43.3951 51.0248 42.8913 51.5551C42.3875 52.0722 41.9898 52.6886 41.6981 53.4045C41.4197 54.1072 41.2739 54.8761 41.2606 55.7114C41.2739 56.825 41.5258 57.8193 42.0163 58.6943C42.5068 59.5693 43.1763 60.2587 44.0248 60.7625C44.8733 61.2663 45.8345 61.5182 46.9083 61.5182Z" fill="url(#paint0_linear_8145_50141)"/>
<defs>
<linearGradient id="paint0_linear_8145_50141" x1="65" y1="39" x2="-57.5" y2="88.5" gradientUnits="userSpaceOnUse">
<stop stop-color="#B02547"/>
<stop offset="1" stop-color="#ED3912"/>
</linearGradient>
</defs>
</svg>
