<svg width="212" height="78" viewBox="0 0 212 78" fill="none" xmlns="http://www.w3.org/2000/svg">
<path d="M2.65483 57V26.4545H9.11293V39.0575H22.223V26.4545H28.6662V57H22.223V44.3821H9.11293V57H2.65483ZM42.9623 57.4474C40.6455 57.4474 38.642 56.9553 36.9516 55.9709C35.2712 54.9766 33.9737 53.5945 33.0589 51.8246C32.1441 50.0447 31.6867 47.9815 31.6867 45.6349C31.6867 43.2685 32.1441 41.2003 33.0589 39.4304C33.9737 37.6506 35.2712 36.2685 36.9516 35.2841C38.642 34.2898 40.6455 33.7926 42.9623 33.7926C45.2791 33.7926 47.2776 34.2898 48.958 35.2841C50.6484 36.2685 51.9509 37.6506 52.8657 39.4304C53.7805 41.2003 54.2379 43.2685 54.2379 45.6349C54.2379 47.9815 53.7805 50.0447 52.8657 51.8246C51.9509 53.5945 50.6484 54.9766 48.958 55.9709C47.2776 56.9553 45.2791 57.4474 42.9623 57.4474ZM42.9921 52.5256C44.0461 52.5256 44.9261 52.2273 45.632 51.6307C46.338 51.0241 46.87 50.1989 47.2279 49.1548C47.5958 48.1108 47.7798 46.9226 47.7798 45.5902C47.7798 44.2578 47.5958 43.0696 47.2279 42.0256C46.87 40.9815 46.338 40.1562 45.632 39.5497C44.9261 38.9432 44.0461 38.6399 42.9921 38.6399C41.9282 38.6399 41.0333 38.9432 40.3075 39.5497C39.5916 40.1562 39.0497 40.9815 38.6818 42.0256C38.3238 43.0696 38.1448 44.2578 38.1448 45.5902C38.1448 46.9226 38.3238 48.1108 38.6818 49.1548C39.0497 50.1989 39.5916 51.0241 40.3075 51.6307C41.0333 52.2273 41.9282 52.5256 42.9921 52.5256ZM69.2946 34.0909V38.8636H55.4985V34.0909H69.2946ZM58.6306 28.6023H64.9843V49.9602C64.9843 50.5469 65.0737 51.0043 65.2527 51.3324C65.4317 51.6506 65.6803 51.8743 65.9985 52.0036C66.3266 52.1328 66.7044 52.1974 67.132 52.1974C67.4303 52.1974 67.7286 52.1726 68.0269 52.1229C68.3252 52.0632 68.5539 52.0185 68.713 51.9886L69.7122 56.7166C69.3941 56.8161 68.9466 56.9304 68.3699 57.0597C67.7932 57.1989 67.0922 57.2834 66.2669 57.3132C64.7357 57.3729 63.3934 57.169 62.2399 56.7017C61.0965 56.2344 60.2066 55.5085 59.5702 54.5241C58.9338 53.5398 58.6206 52.2969 58.6306 50.7955V28.6023ZM82.3677 57.4474C80.0112 57.4474 77.9828 56.9702 76.2825 56.0156C74.5922 55.0511 73.2896 53.6889 72.3748 51.929C71.4601 50.1591 71.0027 48.0661 71.0027 45.6499C71.0027 43.2933 71.4601 41.2251 72.3748 39.4453C73.2896 37.6655 74.5772 36.2784 76.2378 35.2841C77.9082 34.2898 79.867 33.7926 82.1142 33.7926C83.6255 33.7926 85.0325 34.0362 86.3351 34.5234C87.6476 35.0007 88.791 35.7216 89.7655 36.6861C90.7498 37.6506 91.5155 38.8636 92.0623 40.3253C92.6092 41.777 92.8826 43.4773 92.8826 45.4261V47.1712H73.5382V43.2337H86.9018C86.9018 42.3189 86.703 41.5085 86.3052 40.8026C85.9075 40.0966 85.3557 39.5447 84.6497 39.147C83.9537 38.7393 83.1433 38.5355 82.2186 38.5355C81.2541 38.5355 80.399 38.7592 79.6532 39.2067C78.9174 39.6442 78.3407 40.2358 77.9231 40.9815C77.5055 41.7173 77.2917 42.5376 77.2818 43.4425V47.1861C77.2818 48.3196 77.4906 49.299 77.9082 50.1243C78.3358 50.9496 78.9373 51.5859 79.7129 52.0334C80.4885 52.4808 81.4082 52.7045 82.4721 52.7045C83.1781 52.7045 83.8244 52.6051 84.4111 52.4062C84.9977 52.2074 85.4998 51.9091 85.9174 51.5114C86.3351 51.1136 86.6532 50.6264 86.872 50.0497L92.7484 50.4375C92.4501 51.8494 91.8386 53.0824 90.9139 54.1364C89.9991 55.1804 88.8159 55.9957 87.3642 56.5824C85.9224 57.1591 84.2569 57.4474 82.3677 57.4474ZM102.123 26.4545V57H95.7689V26.4545H102.123ZM125.013 40.6236L119.197 40.9815C119.097 40.4844 118.883 40.0369 118.555 39.6392C118.227 39.2315 117.795 38.9084 117.258 38.6697C116.731 38.4212 116.099 38.2969 115.364 38.2969C114.379 38.2969 113.549 38.5057 112.873 38.9233C112.197 39.331 111.859 39.8778 111.859 40.5639C111.859 41.1108 112.077 41.5732 112.515 41.951C112.952 42.3288 113.703 42.6321 114.767 42.8608L118.913 43.696C121.141 44.1534 122.801 44.8892 123.895 45.9034C124.989 46.9176 125.535 48.25 125.535 49.9006C125.535 51.402 125.093 52.7195 124.208 53.853C123.333 54.9865 122.13 55.8714 120.599 56.5078C119.077 57.1342 117.322 57.4474 115.334 57.4474C112.301 57.4474 109.885 56.8161 108.085 55.5533C106.295 54.2805 105.246 52.5504 104.938 50.3629L111.187 50.0348C111.376 50.9595 111.834 51.6655 112.56 52.1527C113.285 52.63 114.215 52.8686 115.349 52.8686C116.462 52.8686 117.357 52.6548 118.033 52.2273C118.719 51.7898 119.067 51.228 119.077 50.5419C119.067 49.9652 118.824 49.4929 118.346 49.125C117.869 48.7472 117.133 48.4588 116.139 48.2599L112.172 47.4695C109.935 47.022 108.269 46.2464 107.175 45.1428C106.092 44.0391 105.55 42.6321 105.55 40.9219C105.55 39.4503 105.947 38.1825 106.743 37.1186C107.548 36.0547 108.677 35.2344 110.128 34.6577C111.59 34.081 113.3 33.7926 115.259 33.7926C118.153 33.7926 120.43 34.4041 122.09 35.6271C123.761 36.8501 124.735 38.5156 125.013 40.6236Z" fill="black"/>
<path fill-rule="evenodd" clip-rule="evenodd" d="M151.84 4.4381C153.045 -0.0206998 158.625 -1.50283 161.884 1.77028L190.848 30.8612C190.265 30.4612 189.643 30.094 188.982 29.7597C186.702 28.6063 184.064 28.0296 181.067 28.0296C178.403 28.0296 175.983 28.5267 173.809 29.521C172.79 29.9808 171.838 30.5367 170.953 31.1887H158.312V38.5012H165.179C165.175 38.6682 165.165 38.832 165.149 38.9925C164.952 39.4856 164.77 39.9942 164.602 40.5182C164.515 40.7925 164.432 41.0705 164.354 41.352C163.837 42.1499 163.073 42.7693 162.06 43.21C161.026 43.6655 159.727 43.8932 158.164 43.8932C156.391 43.8932 154.908 43.4746 153.714 42.6375C152.52 41.8004 151.621 40.594 151.018 39.0182C150.415 37.4424 150.113 35.5466 150.113 33.3307C150.113 31.1394 150.427 29.2682 151.055 27.7171C151.695 26.1659 152.618 24.978 153.825 24.1531C155.043 23.3283 156.514 22.9159 158.238 22.9159C159.038 22.9159 159.771 23.0083 160.435 23.1929C161.112 23.3653 161.703 23.6299 162.208 23.9869C162.725 24.3316 163.156 24.7564 163.501 25.2611C163.845 25.7535 164.098 26.326 164.258 26.9784H174.636C174.439 25.0826 173.885 23.3406 172.974 21.7526C172.063 20.1645 170.862 18.7919 169.373 17.6347C167.896 16.4652 166.191 15.5665 164.258 14.9387C162.337 14.2985 160.257 13.9784 158.016 13.9784C155.468 13.9784 153.08 14.4093 150.852 15.271C150.08 15.565 149.341 15.9083 148.633 16.301L151.84 4.4381ZM141.438 42.9227L134.214 69.648C133.009 74.1068 137.083 78.1982 141.547 77.0125L173.571 68.5065C171.715 67.7491 170.051 66.646 168.579 65.1972C166.935 63.5798 165.642 61.4718 164.701 58.8733C164.013 56.9473 163.584 54.7191 163.413 52.1886C161.763 52.6166 159.989 52.8307 158.09 52.8307C154.409 52.8307 151.178 52.049 148.396 50.4855C145.613 48.9221 143.441 46.6939 141.877 43.8009C141.723 43.5135 141.577 43.2208 141.438 42.9227ZM196.817 40.7568C196.601 38.5255 195.857 36.4782 194.585 34.6148L209.545 49.6395C212.803 52.9126 211.297 58.4861 206.833 59.6718L195.386 62.7122C196.671 60.5827 197.307 58.1165 197.295 55.3137C197.308 52.8212 196.798 50.6072 195.763 48.6716C194.729 46.736 193.284 45.2114 191.428 44.0977C189.585 42.9841 187.431 42.4273 184.965 42.4273C183.414 42.4273 181.942 42.6659 180.55 43.1432C179.158 43.6205 177.939 44.3032 176.891 45.1915C175.844 46.0798 175.062 47.147 174.545 48.3932H174.306C174.333 45.1053 174.883 42.4538 175.957 40.4387C177.044 38.4235 178.747 37.4159 181.067 37.4159C182.234 37.4159 183.268 37.6877 184.17 38.2313C185.084 38.7616 185.668 39.6034 185.92 40.7568H196.817ZM180.908 61.5182C182.009 61.5182 182.983 61.2663 183.832 60.7625C184.693 60.2587 185.363 59.5693 185.84 58.6943C186.331 57.8193 186.569 56.825 186.556 55.7114C186.569 54.5845 186.331 53.5902 185.84 52.7284C185.363 51.8534 184.693 51.164 183.832 50.6602C182.983 50.1565 182.009 49.9046 180.908 49.9046C180.1 49.9046 179.351 50.0504 178.661 50.3421C177.985 50.6205 177.395 51.0248 176.891 51.5551C176.388 52.0722 175.99 52.6887 175.698 53.4046C175.42 54.1072 175.274 54.8762 175.261 55.7114C175.274 56.825 175.526 57.8193 176.016 58.6943C176.507 59.5693 177.176 60.2587 178.025 60.7625C178.873 61.2663 179.834 61.5182 180.908 61.5182Z" fill="url(#paint0_linear_8145_50140)"/>
<defs>
<linearGradient id="paint0_linear_8145_50140" x1="199" y1="39" x2="76.5" y2="88.5" gradientUnits="userSpaceOnUse">
<stop stop-color="#B02547"/>
<stop offset="1" stop-color="#ED3912"/>
</linearGradient>
</defs>
</svg>
